<svg width="283" height="287" viewBox="0 0 283 287" fill="none" xmlns="http://www.w3.org/2000/svg">
<g clip-path="url(#clip0_14_140)">
<path d="M226.807 222.25C224.502 222.25 222.25 221.513 220.334 220.132C218.417 218.752 216.924 216.79 216.042 214.494C215.16 212.198 214.929 209.672 215.379 207.235C215.829 204.798 216.938 202.559 218.568 200.802C220.197 199.045 222.274 197.849 224.534 197.364C226.794 196.879 229.137 197.128 231.266 198.079C233.395 199.03 235.215 200.64 236.495 202.706C237.776 204.772 238.459 207.201 238.459 209.686C238.455 213.017 237.227 216.21 235.042 218.566C232.858 220.921 229.896 222.246 226.807 222.25Z" fill="#CCCCCC"/>
<path d="M232.185 209.203H227.255V203.163C227.255 203.034 227.208 202.912 227.124 202.821C227.04 202.73 226.926 202.679 226.807 202.679C226.688 202.679 226.574 202.73 226.49 202.821C226.406 202.912 226.359 203.034 226.359 203.163V209.203H221.429C221.31 209.203 221.196 209.254 221.112 209.344C221.028 209.435 220.981 209.558 220.981 209.686C220.981 209.814 221.028 209.937 221.112 210.028C221.196 210.118 221.31 210.169 221.429 210.169H226.359V216.209C226.359 216.338 226.406 216.46 226.49 216.551C226.574 216.642 226.688 216.693 226.807 216.693C226.926 216.693 227.04 216.642 227.124 216.551C227.208 216.46 227.255 216.338 227.255 216.209V210.169H232.185C232.304 210.169 232.418 210.118 232.502 210.028C232.586 209.937 232.633 209.814 232.633 209.686C232.633 209.558 232.586 209.435 232.502 209.344C232.418 209.254 232.304 209.203 232.185 209.203Z" fill="white"/>
<path d="M271.679 281.123L266.555 281.123L264.119 259.815L271.68 259.815L271.679 281.123Z" fill="#FFB8B8"/>
<path d="M262.896 279.544H272.777V286.252H256.675C256.675 285.371 256.835 284.499 257.148 283.685C257.461 282.871 257.919 282.132 258.497 281.509C259.074 280.886 259.76 280.392 260.515 280.055C261.27 279.718 262.079 279.544 262.896 279.544Z" fill="#2F2E41"/>
<path d="M251.288 281.123L246.164 281.123L243.728 259.815L251.289 259.815L251.288 281.123Z" fill="#FFB8B8"/>
<path d="M242.505 279.544H252.386V286.252H236.284C236.284 285.371 236.444 284.499 236.757 283.685C237.07 282.871 237.528 282.132 238.106 281.509C238.683 280.886 239.369 280.392 240.124 280.055C240.879 279.718 241.688 279.544 242.505 279.544Z" fill="#2F2E41"/>
<path d="M275.625 207.457C275.213 206.966 274.905 206.383 274.724 205.75C274.543 205.117 274.493 204.449 274.578 203.793C274.662 203.137 274.879 202.509 275.213 201.953C275.547 201.397 275.99 200.927 276.511 200.575L274.924 190.363L280.444 187.81L282.497 202.265C282.987 203.247 283.125 204.389 282.886 205.474C282.647 206.559 282.047 207.512 281.2 208.152C280.353 208.792 279.318 209.075 278.29 208.947C277.263 208.819 276.314 208.289 275.625 207.457Z" fill="#FFB8B8"/>
<path d="M232.407 202.632C232.889 202.221 233.281 201.701 233.556 201.109C233.832 200.517 233.984 199.867 234.001 199.205C234.018 198.543 233.901 197.885 233.656 197.277C233.412 196.669 233.047 196.126 232.588 195.687L235.717 185.898L230.664 182.396L226.424 196.287C225.791 197.169 225.48 198.27 225.549 199.383C225.619 200.496 226.064 201.542 226.802 202.324C227.539 203.106 228.517 203.57 229.55 203.626C230.583 203.683 231.599 203.329 232.407 202.632Z" fill="#FFB8B8"/>
<path d="M258.646 130.517C264.725 130.517 269.653 125.204 269.653 118.649C269.653 112.095 264.725 106.781 258.646 106.781C252.567 106.781 247.639 112.095 247.639 118.649C247.639 125.204 252.567 130.517 258.646 130.517Z" fill="#FFB8B8"/>
<path d="M232.066 195.308C231.877 195.308 231.69 195.279 231.508 195.223L228.3 194.23C227.788 194.07 227.355 193.699 227.095 193.196C226.836 192.694 226.772 192.101 226.916 191.547L233.537 166.342L242.77 141.903C243.688 139.474 245.606 137.881 247.776 137.745C248.767 137.693 249.75 137.952 250.608 138.49C251.465 139.029 252.159 139.823 252.606 140.778C253.103 141.801 253.375 142.932 253.403 144.085C253.431 145.239 253.213 146.384 252.766 147.433L242.272 172.178L233.929 193.963C233.777 194.361 233.518 194.701 233.187 194.941C232.855 195.18 232.465 195.308 232.066 195.308Z" fill="#3F3D56"/>
<path d="M264.857 128.602L258.742 128.719C258.105 128.733 257.473 128.585 256.899 128.287C256.325 127.989 255.824 127.55 255.436 127.005C255.048 126.46 254.784 125.825 254.666 125.15C254.548 124.475 254.578 123.779 254.755 123.119C254.886 122.642 254.984 122.156 255.049 121.663C255.117 121.126 255.131 120.583 255.089 120.043C255.05 119.502 254.842 118.991 254.499 118.595C254.156 118.198 253.698 117.939 253.2 117.86C252.702 117.781 252.194 117.886 251.76 118.159C251.325 118.432 250.989 118.856 250.807 119.362C249.779 119.378 247.588 119.017 246.56 119.032C244.376 112.997 249.134 105.1 254.256 102.134C259.478 99.1096 266.255 102.186 268.257 108.489C271.035 108.542 273.292 111.496 273.65 114.822C274.008 118.147 272.739 121.619 270.798 124.168C268.857 126.717 266.309 128.574 264.857 128.602Z" fill="#2F2E41"/>
<path d="M244.754 279.134C244.259 279.131 243.782 278.932 243.413 278.575C243.044 278.218 242.81 277.727 242.755 277.196L240.486 194.936L269.072 197.13L269.094 197.328C275.554 255.634 273.346 275.818 273.323 276.015C273.307 276.313 273.234 276.604 273.109 276.871C272.984 277.138 272.809 277.374 272.596 277.564C272.382 277.755 272.135 277.896 271.869 277.979C271.602 278.061 271.323 278.084 271.048 278.045L264.731 278.209C264.252 278.15 263.808 277.909 263.48 277.528C263.152 277.147 262.962 276.652 262.943 276.133L257.04 216.553C257.004 216.398 256.918 216.262 256.798 216.169C256.678 216.075 256.531 216.031 256.383 216.042C256.231 216.042 256.084 216.098 255.966 216.202C255.849 216.306 255.768 216.45 255.738 216.611L253.458 276.386C253.482 276.941 253.308 277.485 252.97 277.905C252.633 278.325 252.159 278.589 251.647 278.643L244.955 279.123C244.888 279.13 244.821 279.134 244.754 279.134Z" fill="#2F2E41"/>
<path d="M256.616 204.765C256.445 204.765 256.274 204.762 256.103 204.757C247.883 204.49 241.452 197.784 239.677 195.735C239.451 195.474 239.288 195.157 239.204 194.811C239.119 194.466 239.115 194.103 239.192 193.756L243.934 172.125L242.676 153.32C242.479 150.71 242.796 148.084 243.608 145.616C244.419 143.148 245.706 140.893 247.384 139.001C248.783 137.408 250.482 136.158 252.368 135.335C254.253 134.513 256.281 134.137 258.313 134.233C266.315 134.645 272.628 142.357 272.685 151.79C272.773 166.399 272.374 167.403 272.243 167.733C268.25 177.782 270.431 191.888 271.195 195.973C271.263 196.337 271.243 196.714 271.139 197.068C271.034 197.422 270.847 197.742 270.595 197.996C266.203 202.489 261.502 204.765 256.616 204.765Z" fill="#3F3D56"/>
<path d="M277.26 199.267C276.804 199.266 276.361 199.099 276.005 198.793C275.648 198.486 275.398 198.058 275.297 197.578L270.404 174.598L263.848 148.332C263.568 147.218 263.528 146.05 263.732 144.917C263.936 143.785 264.379 142.717 265.025 141.798C265.612 140.936 266.419 140.276 267.347 139.898C268.275 139.52 269.284 139.439 270.253 139.667C272.373 140.187 274.02 142.1 274.553 144.659L279.911 170.38L282.583 196.445C282.641 197.017 282.486 197.59 282.153 198.039C281.821 198.489 281.337 198.778 280.807 198.844L277.491 199.252C277.414 199.262 277.337 199.267 277.26 199.267Z" fill="#3F3D56"/>
<path d="M13.8174 201.745C14.3979 201.316 14.8841 200.755 15.2417 200.101C15.5994 199.447 15.8197 198.717 15.8873 197.962C15.9549 197.206 15.8681 196.444 15.6329 195.729C15.3978 195.014 15.02 194.363 14.5263 193.822L16.3938 148.874L6.88604 150.025L7.43841 193.99C6.65073 194.945 6.21516 196.178 6.21423 197.455C6.21331 198.733 6.64709 199.967 7.43337 200.922C8.21966 201.878 9.30384 202.49 10.4804 202.642C11.6571 202.793 12.8443 202.474 13.8174 201.745Z" fill="#FFB8B8"/>
<path d="M31.1617 277.831L36.5732 278.857L41.9214 256.84L34.8312 255.326L31.1617 277.831Z" fill="#FFB8B8"/>
<path d="M46.1259 286.253L29.1191 283.029L30.2742 275.944L40.7102 277.923C41.5731 278.086 42.3977 278.431 43.1368 278.938C43.876 279.446 44.5152 280.105 45.0181 280.878C45.521 281.652 45.8777 282.525 46.0677 283.447C46.2578 284.369 46.2776 285.322 46.1259 286.253Z" fill="#2F2E41"/>
<path d="M16.3091 280.752H21.8035L24.4171 257.901L16.3082 257.902L16.3091 280.752Z" fill="#FFB8B8"/>
<path d="M32.3997 286.252L15.1321 286.253L15.1318 279.059L25.7278 279.059C27.4972 279.059 29.1942 279.817 30.4454 281.166C31.6966 282.515 32.3996 284.344 32.3997 286.252Z" fill="#2F2E41"/>
<path d="M39.6815 274.494C39.5958 274.495 39.5101 274.489 39.4249 274.478L32.9581 273.904C32.6637 273.867 32.3794 273.765 32.1224 273.606C31.8655 273.447 31.6413 273.232 31.4635 272.977C31.2857 272.721 31.1579 272.429 31.088 272.118C31.0181 271.807 31.0075 271.485 31.0568 271.17L37.0283 235.083L32.9934 212.143C32.9605 211.956 32.8662 211.789 32.7279 211.672C32.5896 211.554 32.4166 211.495 32.2409 211.504C32.0651 211.514 31.8985 211.591 31.7717 211.723C31.6448 211.854 31.5664 212.031 31.5508 212.22L26.5065 273.408C26.4511 274.022 26.1766 274.589 25.7411 274.989C25.3055 275.389 24.7428 275.591 24.1718 275.552L18.0793 275.308C17.5454 275.267 17.0438 275.017 16.6692 274.604C16.2947 274.192 16.0731 273.646 16.0463 273.07L15.6367 199.734L47.2229 195.477L49.4295 232.221L49.4207 232.259L41.8063 272.692C41.6903 273.206 41.4179 273.662 41.0326 273.989C40.6474 274.316 40.1716 274.494 39.6815 274.494Z" fill="#2F2E41"/>
<path d="M26.0507 119.748C32.1297 119.748 37.0577 114.434 37.0577 107.88C37.0577 101.325 32.1297 96.0115 26.0507 96.0115C19.9716 96.0115 15.0436 101.325 15.0436 107.88C15.0436 114.434 19.9716 119.748 26.0507 119.748Z" fill="#FFB8B8"/>
<path d="M36.4221 205.094C34.7006 205.105 33.0121 204.584 31.5565 203.593C26.2247 200 20.1687 201.428 17.0333 202.599C16.7222 202.716 16.3905 202.756 16.0629 202.716C15.7354 202.676 15.4205 202.556 15.1419 202.366C14.8664 202.18 14.6337 201.929 14.461 201.632C14.2884 201.334 14.1804 200.999 14.145 200.65L8.4434 145.745C7.48794 136.546 12.6273 127.897 20.6635 125.18C20.9654 125.078 21.2724 124.981 21.5845 124.889C24.0853 124.158 26.7043 124.027 29.2572 124.505C31.8101 124.982 34.2349 126.057 36.361 127.654C38.5266 129.269 40.3377 131.376 41.6669 133.826C42.996 136.277 43.811 139.011 44.0543 141.838L48.8542 197.111C48.8869 197.469 48.8421 197.83 48.7233 198.166C48.6046 198.502 48.4151 198.804 48.1698 199.048C46.4872 200.726 41.6036 205.093 36.4221 205.094Z" fill="#FF6F77"/>
<path d="M19.0601 157.519L6.19665 155.994C5.83065 155.951 5.47762 155.823 5.16161 155.619C4.8456 155.415 4.57404 155.14 4.36542 154.813C4.15679 154.486 4.016 154.114 3.95264 153.723C3.88929 153.332 3.90485 152.931 3.99827 152.547L7.27249 139.091C7.48901 137.073 8.43877 135.23 9.91355 133.967C11.3883 132.703 13.2678 132.121 15.1398 132.349C17.0118 132.577 18.7236 133.596 19.8998 135.182C21.0761 136.769 21.6208 138.794 21.4145 140.813L21.9006 154.669C21.9144 155.066 21.8488 155.461 21.7081 155.828C21.5675 156.195 21.3551 156.525 21.0855 156.795C20.816 157.066 20.4955 157.271 20.146 157.395C19.7965 157.52 19.4261 157.563 19.0601 157.519Z" fill="#FF6F77"/>
<path d="M48.8027 199.82C49.331 199.319 49.751 198.699 50.0329 198.003C50.3149 197.308 50.4521 196.554 50.4348 195.796C50.4174 195.037 50.246 194.292 49.9326 193.612C49.6192 192.933 49.1715 192.336 48.6209 191.863L45.4512 147L36.1348 149.262L41.6035 192.951C40.9283 194.001 40.6337 195.281 40.7755 196.55C40.9174 197.818 41.4859 198.987 42.3733 199.833C43.2607 200.68 44.4054 201.146 45.5903 201.144C46.7753 201.142 47.9183 200.671 48.8027 199.82Z" fill="#FFB8B8"/>
<path d="M32.5629 154.699C32.2932 154.429 32.0808 154.099 31.9402 153.732C31.7995 153.365 31.734 152.97 31.7479 152.573L32.234 138.717C32.0278 136.698 32.5725 134.673 33.7487 133.086C34.925 131.499 36.6368 130.48 38.5088 130.252C40.3808 130.024 42.2602 130.606 43.735 131.87C45.2098 133.134 46.1595 134.977 46.3761 136.995L49.6503 150.451C49.7437 150.835 49.7593 151.236 49.6959 151.627C49.6325 152.018 49.4918 152.39 49.2831 152.717C49.0745 153.044 48.803 153.319 48.4869 153.523C48.1709 153.726 47.8179 153.854 47.4519 153.898L34.5884 155.423C34.2224 155.466 33.8519 155.424 33.5024 155.299C33.1528 155.174 32.8323 154.97 32.5629 154.699Z" fill="#FF6F77"/>
<path d="M25.3959 120.195C25.2002 120.195 25.0053 120.17 24.8148 120.122L24.7589 120.107C15.0813 118.511 12.9426 112.467 12.4731 109.943C11.9872 107.33 12.5405 104.807 13.7908 103.827C13.1091 101.507 13.2186 99.4491 14.1167 97.709C15.6832 94.6743 19.0827 93.6482 19.5386 93.5226C22.2536 91.363 25.5019 92.8047 26.093 93.097C31.3446 91.002 33.3519 92.7459 33.7149 93.1352C36.0625 93.5899 37.4934 94.5676 37.9684 96.042C38.8607 98.8113 36.039 102.256 35.9184 102.401L35.8558 102.477L31.6521 102.693C31.2532 102.713 30.8628 102.824 30.5061 103.017C30.1494 103.211 29.8345 103.484 29.5818 103.817C29.329 104.15 29.1441 104.537 29.039 104.953C28.9339 105.368 28.9109 105.803 28.9716 106.228C29.0854 106.777 29.2291 107.319 29.402 107.85C30.12 110.269 30.6579 112.335 29.9641 113.121C29.8069 113.273 29.6132 113.374 29.4051 113.413C29.1971 113.452 28.983 113.427 28.7876 113.341C28.1303 113.152 27.684 113.191 27.4617 113.459C27.1165 113.874 27.2219 114.926 27.7584 116.419C27.9268 116.891 27.9721 117.404 27.8895 117.902C27.8069 118.4 27.5995 118.864 27.2897 119.245C27.0565 119.541 26.7664 119.78 26.4395 119.944C26.1126 120.108 25.7565 120.194 25.3959 120.195Z" fill="#2F2E41"/>
<path d="M63.1894 287.001H0.448152C0.329295 287.001 0.215298 286.95 0.131253 286.859C0.0472087 286.769 0 286.646 0 286.517C0 286.389 0.0472087 286.266 0.131253 286.175C0.215298 286.085 0.329295 286.034 0.448152 286.034H63.1894C63.3083 286.034 63.4222 286.085 63.5063 286.175C63.5903 286.266 63.6375 286.389 63.6375 286.517C63.6375 286.646 63.5903 286.769 63.5063 286.859C63.4222 286.95 63.3083 287.001 63.1894 287.001Z" fill="#CCCCCC"/>
<path d="M281.887 287.001H219.146C219.027 287.001 218.913 286.95 218.829 286.859C218.745 286.769 218.698 286.646 218.698 286.517C218.698 286.389 218.745 286.266 218.829 286.175C218.913 286.085 219.027 286.034 219.146 286.034H281.887C282.006 286.034 282.12 286.085 282.204 286.175C282.288 286.266 282.336 286.389 282.336 286.517C282.336 286.646 282.288 286.769 282.204 286.859C282.12 286.95 282.006 287.001 281.887 287.001Z" fill="#CCCCCC"/>
<path d="M192.128 204.882H83.6755C79.517 204.877 75.5301 203.094 72.5896 199.923C69.649 196.753 67.995 192.454 67.9902 187.97V16.9125C67.995 12.4286 69.649 8.12977 72.5896 4.95917C75.5301 1.78857 79.517 0.00508888 83.6755 0H192.128C196.287 0.00508888 200.274 1.78857 203.214 4.95917C206.155 8.12977 207.809 12.4286 207.814 16.9125V187.97C207.809 192.454 206.155 196.753 203.214 199.923C200.274 203.094 196.287 204.877 192.128 204.882Z" fill="white"/>
<path d="M175.099 135.797H100.705C93.1061 135.758 93.0745 123.276 100.706 123.234L175.099 123.234C182.693 123.272 182.734 135.754 175.099 135.797Z" fill="#CCCCCC"/>
<path d="M175.099 35.2603H100.705C93.1061 35.2208 93.0745 22.7395 100.706 22.6968L175.099 22.6967C182.693 22.7351 182.734 35.2174 175.099 35.2603Z" fill="#CCCCCC"/>
<path d="M175.099 158.991H100.705C93.1061 158.952 93.0745 146.471 100.706 146.428L175.099 146.428C182.693 146.466 182.734 158.949 175.099 158.991Z" fill="#CCCCCC"/>
<path d="M175.099 182.186H100.705C93.1061 182.146 93.0745 169.665 100.706 169.622L175.099 169.622C182.693 169.66 182.734 182.143 175.099 182.186Z" fill="#CCCCCC"/>
<path d="M173.754 108.157H102.05C100.089 108.155 98.2098 107.314 96.8235 105.819C95.4373 104.325 94.6575 102.298 94.6553 100.184V56.8885C94.6575 54.7747 95.4373 52.7481 96.8235 51.2534C98.2098 49.7587 100.089 48.9179 102.05 48.9155H173.754C175.715 48.9179 177.594 49.7587 178.98 51.2534C180.367 52.7481 181.146 54.7747 181.149 56.8885V100.184C181.146 102.298 180.367 104.325 178.98 105.819C177.594 107.314 175.715 108.155 173.754 108.157Z" fill="#FF6F77"/>
<path d="M192.128 204.882H83.6755C79.517 204.877 75.5301 203.094 72.5896 199.923C69.649 196.753 67.995 192.454 67.9902 187.97V16.9125C67.995 12.4286 69.649 8.12977 72.5896 4.95917C75.5301 1.78857 79.517 0.00508888 83.6755 0H192.128C196.287 0.00508888 200.274 1.78857 203.214 4.95917C206.155 8.12977 207.809 12.4286 207.814 16.9125V187.97C207.809 192.454 206.155 196.753 203.214 199.923C200.274 203.094 196.287 204.877 192.128 204.882ZM83.6755 2.89928C80.2299 2.90348 76.9265 4.38122 74.49 7.00829C72.0536 9.63536 70.683 13.1972 70.6791 16.9125V187.97C70.683 191.685 72.0536 195.247 74.49 197.874C76.9265 200.501 80.2299 201.979 83.6755 201.983H192.128C195.574 201.979 198.877 200.501 201.314 197.874C203.75 195.247 205.121 191.685 205.125 187.97V16.9125C205.121 13.1972 203.75 9.63535 201.314 7.00827C198.877 4.3812 195.574 2.90347 192.128 2.89928H83.6755Z" fill="#E6E6E6"/>
</g>
<defs>
<clipPath id="clip0_14_140">
<rect width="283" height="287" fill="white"/>
</clipPath>
</defs>
</svg>
