<svg width="279" height="189" viewBox="0 0 279 189" fill="none" xmlns="http://www.w3.org/2000/svg">
<g clip-path="url(#clip0_19_293)">
<path d="M213.609 186.863C210.037 183.443 207.867 178.04 208.436 172.781C209.005 167.522 212.53 162.687 217.101 161.57C221.672 160.453 226.883 163.545 228.272 168.604C229.036 158.849 229.916 148.686 234.494 140.378C238.638 132.856 245.817 127.474 253.597 126.511C261.377 125.548 269.568 129.185 274.42 136.143C279.272 143.1 280.46 153.216 277.062 161.204C274.558 167.088 269.946 171.467 265.114 175.03C249.499 186.446 230.771 191.088 212.375 188.103L213.609 186.863Z" fill="#F2F2F2"/>
<path d="M266.727 129.386C260.307 135.311 254.418 141.937 249.144 149.169C240.891 160.448 234.213 173.094 229.341 186.666C228.985 187.656 230.404 188.087 230.756 187.108C238.727 165.05 251.45 145.609 267.764 130.562C268.497 129.886 267.453 128.716 266.727 129.386Z" fill="white"/>
<path d="M89.8146 185.934C94.7207 181.236 97.7007 173.816 96.9192 166.592C96.1377 159.369 91.2973 152.728 85.0185 151.194C78.7398 149.66 71.5824 153.906 69.6754 160.856C68.6258 147.457 67.4164 133.497 61.1295 122.087C55.4369 111.756 45.5772 104.363 34.8914 103.04C24.2057 101.718 12.955 106.713 6.29067 116.269C-0.373634 125.826 -2.00536 139.719 2.66214 150.691C6.10053 158.773 12.4353 164.788 19.0725 169.682C40.2475 185.294 66.515 191.805 91.509 187.637" fill="#F2F2F2"/>
<path d="M16.8576 106.99C25.6747 115.127 33.7634 124.228 41.0068 134.161C48.2513 144.084 54.6294 154.779 60.0513 166.097C63.0819 172.446 65.8044 178.978 68.2066 185.663C68.6963 187.023 66.7474 187.615 66.2631 186.27C62.0082 174.484 56.7442 163.199 50.5464 152.577C44.3787 141.993 37.3195 132.111 29.4679 123.072C25.027 117.962 20.3414 113.132 15.4325 108.605C14.4263 107.676 15.8597 106.069 16.8576 106.99Z" fill="white"/>
<path d="M200.271 188.586H83.219V52.5062C83.219 23.5541 104.007 -1.78814e-06 129.559 -1.78814e-06H153.931C179.483 -1.78814e-06 200.271 23.5541 200.271 52.5062V188.586Z" fill="#F2F2F2"/>
<path d="M175.898 188.586H83.2189V52.5062C83.1933 41.4124 86.2937 30.599 92.0686 21.6404C92.2814 21.3117 92.4938 20.9871 92.7128 20.6662C95.506 16.5151 98.8301 12.8594 102.575 9.81955C102.787 9.64513 102.999 9.47375 103.215 9.30235C106.349 6.84507 109.739 4.83629 113.308 3.32173C113.52 3.23071 113.735 3.13952 113.951 3.05204C117.179 1.74687 120.525 0.852824 123.927 0.386428C124.138 0.35378 124.355 0.328232 124.571 0.302684C127.887 -0.0990046 131.231 -0.0990046 134.546 0.302684C134.762 0.328232 134.979 0.353777 135.192 0.386778C138.594 0.853204 141.939 1.74714 145.166 3.05206C145.382 3.13953 145.598 3.23073 145.81 3.32192C149.335 4.81737 152.685 6.79618 155.786 9.21418C156.001 9.38185 156.217 9.55324 156.429 9.72463C158.528 11.4225 160.5 13.3141 162.325 15.38C163.787 17.0371 165.151 18.8035 166.405 20.6673C166.623 20.9872 166.836 21.3117 167.048 21.6399C172.823 30.5986 175.924 41.4122 175.898 52.5062V188.586Z" fill="#CCCCCC"/>
<path d="M168.362 127.723C171.196 127.723 173.493 125.12 173.493 121.909C173.493 118.698 171.196 116.095 168.362 116.095C165.528 116.095 163.231 118.698 163.231 121.909C163.231 125.12 165.528 127.723 168.362 127.723Z" fill="#FF6F77"/>
<path d="M190.682 184.51H186.75L184.879 167.328L190.682 167.328L190.682 184.51Z" fill="#FFB8B8"/>
<path d="M183.942 183.238H191.524V188.647H179.168C179.168 187.936 179.291 187.233 179.531 186.577C179.771 185.92 180.123 185.324 180.566 184.822C181.009 184.32 181.536 183.921 182.115 183.649C182.694 183.377 183.315 183.238 183.942 183.238Z" fill="#2F2E41"/>
<path d="M210.244 184.51H206.312L204.442 167.328L210.245 167.328L210.244 184.51Z" fill="#FFB8B8"/>
<path d="M203.504 183.238H211.086V188.647H198.73C198.73 187.936 198.853 187.233 199.093 186.577C199.333 185.92 199.685 185.324 200.128 184.822C200.571 184.32 201.098 183.921 201.677 183.649C202.256 183.377 202.877 183.238 203.504 183.238Z" fill="#2F2E41"/>
<path d="M170.959 123.061C170.676 122.588 170.488 122.052 170.408 121.488C170.328 120.925 170.358 120.348 170.496 119.8C170.634 119.251 170.876 118.743 171.206 118.312C171.536 117.88 171.945 117.536 172.405 117.304L185.77 75.5653L192.347 79.6318L177.087 119.519C177.38 120.42 177.372 121.412 177.063 122.307C176.754 123.202 176.167 123.937 175.411 124.374C174.656 124.81 173.785 124.918 172.965 124.676C172.144 124.434 171.43 123.859 170.959 123.061Z" fill="#FFB8B8"/>
<path d="M208.236 130.903C207.799 130.62 207.422 130.231 207.132 129.764C206.842 129.297 206.646 128.764 206.558 128.203C206.469 127.641 206.49 127.064 206.62 126.512C206.75 125.961 206.984 125.448 207.308 125.011L203.167 80.8587L210.652 81.2461L212.372 124.676C212.985 125.34 213.361 126.236 213.43 127.193C213.499 128.151 213.255 129.104 212.745 129.871C212.235 130.639 211.495 131.168 210.664 131.358C209.832 131.549 208.968 131.387 208.236 130.903Z" fill="#FFB8B8"/>
<path d="M196.296 67.8342C200.646 67.8342 204.172 63.8385 204.172 58.9096C204.172 53.9807 200.646 49.985 196.296 49.985C191.946 49.985 188.419 53.9807 188.419 58.9096C188.419 63.8385 191.946 67.8342 196.296 67.8342Z" fill="#FFB8B8"/>
<path d="M208.185 120.862H184.439L184.468 120.653C184.51 120.34 188.7 89.2436 185.61 79.0705C185.3 78.0708 185.327 76.9764 185.687 75.9981C186.046 75.0198 186.712 74.2267 187.556 73.7714C191.973 71.4148 200.451 68.5131 207.606 75.5552C208.659 76.6085 209.481 77.925 210.008 79.4005C210.534 80.8759 210.75 82.47 210.64 84.0565L208.185 120.862Z" fill="#FF6F77"/>
<path d="M189 93.8391L178.309 91.3816L183.32 77.9263C183.62 76.6231 184.364 75.5078 185.389 74.8252C186.413 74.1425 187.635 73.9482 188.786 74.2849C189.937 74.6215 190.923 75.4616 191.528 76.621C192.133 77.7803 192.307 79.1641 192.013 80.469L189 93.8391Z" fill="#FF6F77"/>
<path d="M202.692 98.4021L202.049 81.7086C201.562 78.5705 203.147 75.604 205.586 75.1191C208.025 74.636 210.406 76.8124 210.896 79.9736L213.311 95.572L202.692 98.4021Z" fill="#FF6F77"/>
<path d="M207.395 118.863C211.216 135.352 211.633 156.315 210.602 179.182L205.471 178.455L196.171 134.851L191.04 179.182L185.268 178.819C183.543 154.826 181.864 134.228 184.626 120.68L207.395 118.863Z" fill="#2F2E41"/>
<path d="M201.486 65.8068C200.017 67.5803 197.288 66.6283 197.096 64.2054C197.081 64.0173 197.082 63.828 197.099 63.6401C197.198 62.5669 197.746 61.5925 197.614 60.4594C197.585 60.1773 197.492 59.9086 197.345 59.6785C196.174 57.9019 193.425 60.4732 192.32 58.8649C191.643 57.8787 192.439 56.326 191.919 55.2237C191.233 53.769 189.2 54.4866 187.925 53.6899C186.507 52.8035 186.592 50.3378 187.526 48.838C188.664 47.009 190.661 46.033 192.632 45.8924C194.604 45.7517 196.561 46.3556 198.402 47.1683C200.493 48.0917 202.567 49.3679 203.854 51.4515C205.419 53.9853 205.57 57.3917 204.787 60.3545C204.311 62.1569 202.686 64.3585 201.486 65.8068Z" fill="#2F2E41"/>
<path d="M269.374 188.82H32.6102C32.5091 188.82 32.4123 188.774 32.3409 188.693C32.2696 188.612 32.2295 188.502 32.2295 188.387C32.2295 188.273 32.2696 188.163 32.3409 188.082C32.4123 188.001 32.5091 187.955 32.6102 187.955H269.374C269.475 187.955 269.571 188.001 269.643 188.082C269.714 188.163 269.754 188.273 269.754 188.387C269.754 188.502 269.714 188.612 269.643 188.693C269.571 188.774 269.475 188.82 269.374 188.82Z" fill="#3F3D56"/>
<path d="M150.404 149.161H108.714C108.165 149.165 107.637 148.921 107.246 148.484C106.855 148.047 106.634 147.452 106.629 146.83V41.3928C106.634 40.7707 106.855 40.1759 107.246 39.7389C107.637 39.3019 108.165 39.0583 108.714 39.0617H150.404C150.953 39.0583 151.48 39.3019 151.871 39.7389C152.262 40.1759 152.484 40.7707 152.488 41.3928V146.83C152.484 147.452 152.262 148.047 151.871 148.484C151.48 148.921 150.953 149.165 150.404 149.161Z" fill="white"/>
<path d="M152.488 73.1779H106.629V73.9046H152.488V73.1779Z" fill="#CCCCCC"/>
<path d="M152.648 114.642H106.79V115.368H152.648V114.642Z" fill="#CCCCCC"/>
<path d="M121.702 39.0617H121.06V149.525H121.702V39.0617Z" fill="#CCCCCC"/>
<path d="M137.736 39.0617H137.095V149.525H137.736V39.0617Z" fill="#CCCCCC"/>
</g>
<defs>
<clipPath id="clip0_19_293">
<rect width="279" height="189" fill="white"/>
</clipPath>
</defs>
</svg>
